<svg width="32" height="32" viewBox="0 0 32 32" fill="none" xmlns="http://www.w3.org/2000/svg">
  <defs>
    <linearGradient id="logo-gradient" x1="0" y1="0" x2="32" y2="32" gradientUnits="userSpaceOnUse">
      <stop stop-color="#3B82F6"/>
      <stop offset="1" stop-color="#9333EA"/>
    </linearGradient>
    <filter id="glow" x="-4" y="-4" width="40" height="40" filterUnits="userSpaceOnUse" color-interpolation-filters="sRGB">
      <flood flood-opacity="0" result="BackgroundImageFix"/>
      <feColorMatrix in="SourceAlpha" type="matrix" values="0 0 0 0 0 0 0 0 0 0 0 0 0 0 0 0 0 0 127 0" result="hardAlpha"/>
      <feOffset dx="0" dy="0"/>
      <feGaussianBlur stdDeviation="2"/>
      <feComposite in2="hardAlpha" operator="out"/>
      <feColorMatrix type="matrix" values="0 0 0 0 0.231373 0 0 0 0 0.513726 0 0 0 0 0.964706 0 0 0 0.5 0"/>
      <feBlend mode="normal" in2="BackgroundImageFix" result="effect1_dropShadow_1_1"/>
      <feBlend mode="normal" in="SourceGraphic" in2="effect1_dropShadow_1_1" result="shape"/>
    </filter>
  </defs>
  <!-- Stylized 'S' for Selva -->
  <path d="M24 10C24 8.89543 23.1046 8 22 8H10C8.89543 8 8 8.89543 8 10V14C8 15.1046 8.89543 16 10 16H22C23.1046 16 24 16.8954 24 18V22C24 23.1046 23.1046 24 22 24H10C8.89543 24 8 23.1046 8 22" 
        stroke="url(#logo-gradient)" 
        stroke-width="3.5" 
        stroke-linecap="round" 
        stroke-linejoin="round" 
        filter="url(#glow)"/>
  <!-- Decorative accent for AI feel -->
  <path d="M26 4L28 6" stroke="#3B82F6" stroke-width="2" stroke-linecap="round" opacity="0.6"/>
  <path d="M4 28L6 26" stroke="#9333EA" stroke-width="2" stroke-linecap="round" opacity="0.6"/>
</svg>
